# xmcd
#
# Track frame offsets:
#	187
#	15815
#	41830
#	59212
#	74545
#	101032
#	122210
#	134325
#	154970
#	177845
#
# Disc length: 2673 seconds
#
# Revision: 4
# Processed by: cddbd v1.5PL3 Copyright (c) Steve Scherf et al.
# Submitted via: dBpowerAMP V4.0
#
DISCID=910a6f0a
DTITLE=DonGrusin,Denver,CO - Zephyr;GRP9644
DYEAR=1991
DGENRE=Jazz - Crossover
TTITLE0=Zephyr(1991,DonGrusin,Denver,CO)
TTITLE1=Tonight,PureLove(1991,DonGrusin,Denver,CO)
TTITLE2=StillGoodLookin'(1991,DonGrusin,Denver,CO)
TTITLE3=Anoranza(1991,DonGrusin,Denver,CO)
TTITLE4=Hardwood(1991,DonGrusin,Denver,CO)
TTITLE5=Storyteller(1991,DonGrusin,Denver,CO)
TTITLE6=Chico(1991,DonGrusin,Denver,CO)
TTITLE7=Tribe(1991,DonGrusin,Denver,CO)
TTITLE8=LastTrain,The(1991,DonGrusin,Denver,CO)
TTITLE9=Hattie-Mae{DanceAllDay}(1991,DonGrusin,Denver,CO)
EXTD=more info
EXTT0=
EXTT1=
EXTT2=
EXTT3=
EXTT4=
EXTT5=
EXTT6=
EXTT7=
EXTT8=
EXTT9=
PLAYORDER=
